HIERARCHY
ROOT Hips
{
	OFFSET 0.000000 0.000000 0.000000
	CHANNELS 6 Xposition Yposition Zposition Zrotation Yrotation Xrotation 
	JOINT LeftUpLeg_virtual
	{
		OFFSET 0.000000 0.000000 0.000000
		CHANNELS 3 Zrotation Yrotation Xrotation
		JOINT LeftUpLeg
		{
			OFFSET 10.205400 -3.823500 0.155100
			CHANNELS 3 Zrotation Yrotation Xrotation
			JOINT LeftLeg
			{
				OFFSET 0.708757 -12.982077 0.567790
				CHANNELS 3 Zrotation Yrotation Xrotation
				JOINT LeftFoot
				{
					OFFSET -0.708756 -10.717838 -2.184338
					CHANNELS 3 Zrotation Yrotation Xrotation
					JOINT LeftToeBase
					{
						OFFSET 0.108149 -7.191104 7.560241
						CHANNELS 3 Zrotation Yrotation Xrotation
						End Site
						{
							OFFSET 0.000000 0.000000 0.000000
						}
					}
				}
			}
		}
	}
	JOINT RightUpLeg_virtual
	{
		OFFSET 0.000000 0.000000 0.000000
		CHANNELS 3 Zrotation Yrotation Xrotation
		JOINT RightUpLeg
		{
			OFFSET -10.205400 -3.823500 0.005500
			CHANNELS 3 Zrotation Yrotation Xrotation
			JOINT RightLeg
			{
				OFFSET -0.708756 -12.982134 0.610632
				CHANNELS 3 Zrotation Yrotation Xrotation
				JOINT RightFoot
				{
					OFFSET 0.708754 -10.717769 -1.945823
					CHANNELS 3 Zrotation Yrotation Xrotation
					JOINT RightToeBase
					{
						OFFSET -0.108140 -7.191069 7.372968
						CHANNELS 3 Zrotation Yrotation Xrotation
						End Site
						{
							OFFSET 0.000000 0.000000 0.000000
						}
					}
				}
			}
		}
	}
	JOINT Spine_virtual
	{
		OFFSET 0.000000 0.000000 0.000000
		CHANNELS 3 Zrotation Yrotation Xrotation
		JOINT Spine
		{
			OFFSET 0.000000 6.876099 0.125700
			CHANNELS 3 Zrotation Yrotation Xrotation
			JOINT Spine1
			{
				OFFSET 0.000000 8.022060 0.146608
				CHANNELS 3 Zrotation Yrotation Xrotation
				JOINT Spine2
				{
					OFFSET 0.000000 9.168068 0.167552
					CHANNELS 3 Zrotation Yrotation Xrotation
					JOINT Neck_virtual
					{
						OFFSET 0.000000 0.000000 0.000000
						CHANNELS 3 Zrotation Yrotation Xrotation
						JOINT Neck
						{
							OFFSET 0.000000 10.314075 0.188496
							CHANNELS 3 Zrotation Yrotation Xrotation
							JOINT Head
							{
								OFFSET 0.000000 7.643700 -2.377400
								CHANNELS 3 Zrotation Yrotation Xrotation
								End Site
								{
									OFFSET 0.000000 0.000000 0.000000
								}
							}
						}
					}
					JOINT LeftShoulder_virtual
					{
						OFFSET 0.000000 0.000000 0.000000
						CHANNELS 3 Zrotation Yrotation Xrotation
						JOINT LeftShoulder
						{
							OFFSET 4.392200 8.824978 0.174984
							CHANNELS 3 Zrotation Yrotation Xrotation
							JOINT LeftArm
							{
								OFFSET 8.771219 -2.981674 -0.026999
								CHANNELS 3 Zrotation Yrotation Xrotation
								JOINT LeftForeArm
								{
									OFFSET 8.512804 0.000000 -0.000000
									CHANNELS 3 Zrotation Yrotation Xrotation
									JOINT LeftHand
									{
										OFFSET 18.484802 0.000000 -0.000000
										CHANNELS 3 Zrotation Yrotation Xrotation
										End Site
										{
											OFFSET 0.000000 0.000000 0.000000
										}
									}
								}
							}
						}
					}
					JOINT RightShoulder_virtual
					{
						OFFSET 0.000000 0.000000 0.000000
						CHANNELS 3 Zrotation Yrotation Xrotation
						JOINT RightShoulder
						{
							OFFSET -4.392200 8.824993 0.141379
							CHANNELS 3 Zrotation Yrotation Xrotation
							JOINT RightArm
							{
								OFFSET -8.771282 -2.981682 -0.094208
								CHANNELS 3 Zrotation Yrotation Xrotation
								JOINT RightForeArm
								{
									OFFSET -8.494598 0.000000 0.000000
									CHANNELS 3 Zrotation Yrotation Xrotation
									JOINT RightHand
									{
										OFFSET -18.483803 0.000000 0.000001
										CHANNELS 3 Zrotation Yrotation Xrotation
										End Site
										{
											OFFSET 0.000000 0.000000 0.000000
										}
									}
								}
							}
						}
					}
				}
			}
		}
	}
}
MOTION
Frames: 14
Frame Time: 0.033333
-3.222840 27.575584 -26.558929 179.900803 1.137924 -179.885312 0.722321 -2.813705 5.567657 -7.524716 7.704381 -77.285469 15.207905 1.236618 76.230935 -7.455423 -3.565607 4.059549 0.000000 0.000000 0.000000 3.686321 -0.107966 6.263157 -0.910009 -5.376436 -78.933464 -1.507473 -0.470175 73.413277 -1.953359 3.367162 6.983374 0.000000 0.000000 0.000000 1.939971 0.675478 0.883461 -0.077832 1.765755 -4.453018 -0.312929 -3.520160 5.630751 0.045310 0.010395 0.005163 -0.442323 -2.352963 8.593948 -0.425439 1.104318 21.392373 0.000000 0.000000 0.000000 0.959719 -1.960921 4.786652 -6.111922 -2.371109 -0.239689 -42.684697 -5.015882 27.204804 154.761322 -88.248216 -134.986094 0.000000 0.000000 0.000000 -2.398542 -0.851488 3.943490 10.736636 1.595902 -10.615104 33.378066 31.665809 -6.307794 179.035801 66.720320 171.717704 0.000000 0.000000 0.000000 
-3.227412 27.577723 -26.564672 179.967534 1.044838 -179.912661 0.824408 -2.898462 5.533015 -7.581262 7.717492 -77.245533 15.282821 1.199914 76.252170 -7.462978 -3.726550 4.087158 0.000000 0.000000 0.000000 3.724704 -0.207796 6.248797 -0.923077 -5.373019 -78.852751 -1.489360 -0.509388 73.419479 -1.964978 3.371058 6.966127 0.000000 0.000000 0.000000 1.999984 0.565497 0.822121 -0.080027 1.676164 -4.487623 -0.310571 -3.535471 5.594745 0.008530 -0.017641 0.016970 -0.473592 -2.326716 8.489497 -0.346081 1.074263 21.072973 0.000000 0.000000 0.000000 0.962234 -1.948923 4.707716 -5.929536 -2.397376 -0.291158 -42.784674 -4.920082 27.082918 154.468963 -88.216005 -134.761982 0.000000 0.000000 0.000000 -2.422854 -0.833800 3.849669 10.642584 1.666998 -10.592261 33.314562 32.085541 -6.746443 179.431433 66.772025 172.075633 0.000000 0.000000 0.000000 
-3.229327 27.581041 -26.558941 179.914354 1.119868 -179.947153 0.742141 -2.857377 5.484008 -7.584972 7.797322 -77.180086 15.390073 1.146221 76.305767 -7.384751 -3.870720 4.069808 0.000000 0.000000 0.000000 3.671488 -0.192145 6.187195 -0.907442 -5.388825 -78.787079 -1.493926 -0.525293 73.388573 -1.941287 3.372830 7.025456 0.000000 0.000000 0.000000 1.954223 0.492009 0.773792 -0.094803 1.615385 -4.534790 -0.324470 -3.527386 5.520663 0.006035 -0.005441 0.029554 -0.516250 -2.292395 8.390061 -0.323588 1.055476 20.821470 0.000000 0.000000 0.000000 0.915842 -1.885796 4.605781 -5.843021 -2.341144 -0.306400 -42.939361 -4.818694 26.982403 154.848940 -88.124453 -135.223812 0.000000 0.000000 0.000000 -2.465002 -0.751356 3.828002 10.543396 1.773140 -10.495801 33.229557 32.451291 -7.233496 179.378594 66.864676 171.980625 0.000000 0.000000 0.000000 
-3.237908 27.584370 -26.543772 179.943014 1.173811 -179.932441 0.757540 -2.897755 5.385658 -7.611605 7.851594 -77.123388 15.447199 1.062504 76.321367 -7.286359 -3.979056 3.999647 0.000000 0.000000 0.000000 3.665262 -0.228642 6.121140 -0.871786 -5.387008 -78.715307 -1.514524 -0.550972 73.297273 -1.879058 3.376266 7.131796 0.000000 0.000000 0.000000 1.947435 0.468328 0.724179 -0.043568 1.601369 -4.613822 -0.329007 -3.483075 5.449271 0.017143 0.014160 0.019518 -0.521500 -2.281226 8.330612 -0.334368 1.065753 20.629065 0.000000 0.000000 0.000000 0.915711 -1.911000 4.621037 -5.767409 -2.464604 -0.381213 -43.055921 -4.721609 26.799794 156.738457 -88.125491 -137.189240 0.000000 0.000000 0.000000 -2.484736 -0.811664 3.739432 10.446442 1.760509 -10.381879 33.182589 32.702160 -7.651420 179.354320 66.962492 171.889142 0.000000 0.000000 0.000000 
-3.248395 27.587536 -26.531935 179.901732 1.196256 -179.918152 0.682523 -2.928658 5.300383 -7.625486 7.892166 -77.028346 15.491535 1.013060 76.340649 -7.093401 -4.043530 3.909185 0.000000 0.000000 0.000000 3.594925 -0.267651 6.060473 -0.817220 -5.353918 -78.633407 -1.540523 -0.587325 73.164597 -1.790813 3.372988 7.262098 0.000000 0.000000 0.000000 1.886956 0.425120 0.680585 -0.002099 1.538662 -4.694954 -0.354778 -3.489562 5.373172 0.005144 -0.006630 0.028703 -0.500991 -2.285183 8.251038 -0.428520 1.087309 20.520043 0.000000 0.000000 0.000000 0.939726 -1.814833 4.630360 -5.776799 -2.594346 -0.380902 -43.186101 -4.661059 26.825734 153.597390 -88.085104 -134.107609 0.000000 0.000000 0.000000 -2.431389 -0.771310 3.682104 10.315374 1.845866 -10.147405 33.120250 32.838095 -8.053999 179.370425 67.158498 171.825375 0.000000 0.000000 0.000000 
-3.258794 27.588812 -26.526546 179.973080 1.288302 -179.931689 0.691812 -2.902885 5.208363 -7.687931 7.976606 -76.935886 15.463941 0.920953 76.367437 -7.066829 -4.131513 3.797085 0.000000 0.000000 0.000000 3.589234 -0.275924 5.995595 -0.780549 -5.278325 -78.520545 -1.589806 -0.561013 73.030138 -1.718063 3.334292 7.364121 0.000000 0.000000 0.000000 1.849332 0.440368 0.653708 0.103085 1.507697 -4.760850 -0.330299 -3.485933 5.305805 0.008306 0.009156 0.025307 -0.512465 -2.234557 8.193204 -0.592802 1.138052 20.561706 0.000000 0.000000 0.000000 0.900259 -1.879047 4.574722 -5.825630 -2.620547 -0.347710 -43.262247 -4.592867 26.917087 153.012944 -88.155380 -133.560716 0.000000 0.000000 0.000000 -2.463808 -0.809925 3.644212 10.113286 1.922246 -10.034872 33.260405 32.798657 -8.170055 179.176790 67.438829 171.544094 0.000000 0.000000 0.000000 
-3.258732 27.584675 -26.523153 179.910721 1.306106 -179.876583 0.577680 -2.936710 5.066414 -7.720149 8.050064 -76.887863 15.377635 0.775914 76.421149 -7.022366 -4.185451 3.644524 0.000000 0.000000 0.000000 3.459349 -0.299497 5.839942 -0.702905 -5.187077 -78.419396 -1.654949 -0.547107 72.933218 -1.653207 3.280191 7.400856 0.000000 0.000000 0.000000 1.704337 0.397027 0.534670 0.157601 1.477025 -4.828285 -0.304252 -3.497478 5.226894 -0.002235 0.001671 0.010120 -0.486377 -2.212126 8.183420 -0.845956 1.228550 20.712977 0.000000 0.000000 0.000000 0.933220 -1.813279 4.564382 -5.894825 -2.673091 -0.327086 -43.333555 -4.594985 27.015946 155.570946 -88.246208 -136.125889 0.000000 0.000000 0.000000 -2.431627 -0.739246 3.657260 9.866171 2.137153 -9.827668 33.635594 32.386783 -8.085686 178.970381 67.740109 171.243784 0.000000 0.000000 0.000000 
-3.249162 27.570807 -26.528036 179.920160 1.310492 -179.951470 0.547915 -2.980635 4.998235 -7.669767 8.062243 -76.718010 15.260654 0.620940 76.532823 -6.986690 -4.193065 3.510984 0.000000 0.000000 0.000000 3.377840 -0.424668 5.690587 -0.584681 -5.000906 -78.171092 -1.742190 -0.570661 72.878733 -1.604555 3.217981 7.466008 0.000000 0.000000 0.000000 1.605509 0.358401 0.445977 0.218252 1.514504 -4.795787 -0.272822 -3.459002 5.225212 0.004198 0.010061 0.019821 -0.450707 -2.218833 8.145972 -1.156231 1.377723 21.019434 0.000000 0.000000 0.000000 0.950303 -1.842072 4.507768 -5.979745 -2.791055 -0.323735 -43.383975 -4.635628 27.324235 152.624962 -88.255606 -133.160180 0.000000 0.000000 0.000000 -2.397546 -0.771837 3.616055 9.603109 2.290293 -9.506425 34.341119 31.591705 -7.439072 179.017496 68.171012 171.217912 0.000000 0.000000 0.000000 
-3.240106 27.549566 -26.528461 179.965171 1.242604 -179.846695 0.600126 -3.210579 4.805216 -7.546073 8.061029 -76.625898 15.143088 0.476947 76.692089 -6.918521 -4.162227 3.336530 0.000000 0.000000 0.000000 3.311938 -0.634267 5.403092 -0.434904 -4.797031 -77.972237 -1.837002 -0.585505 72.826953 -1.547522 3.184726 7.538210 0.000000 0.000000 0.000000 1.536602 0.222445 0.184186 0.228150 1.525302 -4.816622 -0.256947 -3.463271 5.191263 0.015970 -0.025105 0.097669 -0.437818 -2.168903 8.142968 -1.547473 1.590918 21.405792 0.000000 0.000000 0.000000 0.992519 -1.812409 4.484781 -5.998039 -2.826914 -0.337514 -43.451512 -4.711859 27.578084 153.899762 -88.293145 -134.394217 0.000000 0.000000 0.000000 -2.354055 -0.783107 3.595035 9.296767 2.520771 -9.238597 35.505099 30.105643 -6.202453 178.791198 68.672013 170.945838 0.000000 0.000000 0.000000 
-3.230548 27.524607 -26.530151 179.927728 1.219971 -179.848962 0.569896 -3.357760 4.627959 -7.348003 8.059207 -76.470040 15.123828 0.489238 76.808783 -6.820334 -4.112873 3.222710 0.000000 0.000000 0.000000 3.176668 -0.815769 5.114094 -0.281342 -4.603428 -77.689932 -1.893781 -0.528044 72.834392 -1.484531 3.184890 7.578703 0.000000 0.000000 0.000000 1.415144 0.122223 -0.065742 0.165577 1.579485 -4.784237 -0.245389 -3.428284 5.262172 0.002945 -0.010953 0.017713 -0.378852 -2.188193 8.260883 -1.968419 1.884207 21.886100 0.000000 0.000000 0.000000 1.061253 -1.841871 4.540576 -5.992774 -2.841379 -0.297823 -43.587317 -4.798896 27.862918 155.439656 -88.166233 -135.872830 0.000000 0.000000 0.000000 -2.265119 -0.757328 3.676439 8.958021 2.790167 -8.675400 36.869204 28.053518 -4.466581 178.577318 69.337826 170.727258 0.000000 0.000000 0.000000 
-3.230353 27.501827 -26.525373 179.942071 1.208828 -179.859604 0.541197 -3.446491 4.405663 -7.261431 8.062560 -76.325274 14.973829 0.387143 76.996231 -6.825445 -4.092970 3.132523 0.000000 0.000000 0.000000 3.083620 -0.961803 4.836499 -0.215245 -4.354857 -77.414197 -1.916114 -0.365331 72.812521 -1.426243 3.208451 7.557475 0.000000 0.000000 0.000000 1.338204 0.037241 -0.304699 0.086052 1.602885 -4.765700 -0.239348 -3.453418 5.329882 0.002094 -0.023820 0.025462 -0.380555 -2.178916 8.340444 -2.460307 2.175235 22.403951 0.000000 0.000000 0.000000 1.100498 -1.827134 4.557918 -5.894478 -2.737640 -0.252271 -43.745729 -4.858672 28.124328 159.235328 -87.999140 -139.592401 0.000000 0.000000 0.000000 -2.233777 -0.779586 3.771770 8.636127 3.094489 -8.419282 38.742790 25.415696 -1.860231 178.344313 70.173603 170.546518 0.000000 0.000000 0.000000 
-3.235636 27.484118 -26.503784 179.871789 1.203297 -179.962425 0.461642 -3.391362 4.199154 -7.433633 8.100207 -76.180296 14.830607 0.211185 76.956568 -6.749396 -4.015755 3.225549 0.000000 0.000000 0.000000 2.950302 -0.938789 4.652925 -0.035990 -4.205239 -77.157649 -1.901935 -0.087411 72.810623 -1.469595 3.161136 7.528309 0.000000 0.000000 0.000000 1.197697 0.038546 -0.439210 -0.057365 1.653722 -4.711514 -0.245314 -3.472310 5.414060 0.012665 -0.024734 0.033120 -0.368616 -2.230139 8.415614 -2.902983 2.529062 22.941796 0.000000 0.000000 0.000000 1.141104 -1.765618 4.673648 -5.704162 -2.713307 -0.320065 -43.872962 -4.930431 28.377203 162.124225 -87.772698 -142.401043 0.000000 0.000000 0.000000 -2.197297 -0.779819 3.842962 8.297301 3.458032 -7.841727 40.435932 22.424568 0.928346 177.797037 71.072804 170.112364 0.000000 0.000000 0.000000 
-3.241278 27.472361 -26.473335 -179.985197 1.075704 -179.947959 0.505599 -3.378587 3.989499 -7.274291 8.201603 -76.091210 14.703896 0.324207 77.003519 -6.691992 -3.997410 3.328892 0.000000 0.000000 0.000000 3.051942 -0.940964 4.526761 -0.133084 -4.007299 -77.027438 -1.747144 0.142904 72.788739 -1.521634 3.132001 7.499297 0.000000 0.000000 0.000000 1.199377 0.054424 -0.593008 -0.102575 1.704478 -4.681610 -0.250810 -3.556191 5.491063 0.003648 -0.050837 0.012151 -0.442153 -2.233967 8.551318 -3.356740 2.877684 23.463243 0.000000 0.000000 0.000000 1.077034 -1.891441 4.705404 -5.511236 -2.446149 -0.280454 -43.971436 -4.958088 28.483028 165.236510 -87.555594 -145.432336 0.000000 0.000000 0.000000 -2.246361 -0.781339 4.016636 7.999582 3.940553 -7.234128 42.163625 19.380998 4.014767 177.443629 72.104094 169.914985 0.000000 0.000000 0.000000 
-3.252462 27.463541 -26.435671 179.988271 1.248931 -179.933984 0.490756 -3.133848 3.871828 -7.158334 8.160338 -76.018435 14.824203 0.676747 76.907732 -6.378388 -4.223756 3.491291 0.000000 0.000000 0.000000 3.013628 -0.703724 4.411160 -0.069741 -3.954378 -76.954266 -1.950750 0.322969 72.704085 -1.465207 3.178030 7.490944 0.000000 0.000000 0.000000 1.113324 0.128039 -0.686805 -0.193775 1.908291 -4.618863 -0.317174 -3.547442 5.601203 0.006512 0.011101 0.000660 -0.523362 -2.286570 8.650955 -3.750806 3.207959 23.961622 0.000000 0.000000 0.000000 1.013885 -1.937673 4.772242 -5.262785 -2.298324 -0.327032 -44.046862 -4.913174 28.507145 168.644652 -87.381171 -148.774142 0.000000 0.000000 0.000000 -2.296821 -0.873542 4.142324 7.790960 4.380894 -6.672228 43.735747 16.338439 7.262147 176.743849 72.981910 169.416272 0.000000 0.000000 0.000000 
